<svg width="30" height="30" viewBox="0 0 30 30" fill="none" xmlns="http://www.w3.org/2000/svg">
<path d="M12.88 11.8467V18.24L18.0533 15.04L15.4667 13.4467L12.88 11.8467Z" fill="white"/>
<path d="M15 0C6.71333 0 0 6.71333 0 15C0 23.2867 6.71333 30 15 30C23.2867 30 30 23.2867 30 15C30 6.71333 23.2867 0 15 0ZM23.3333 17.78C23.3333 19.4467 21.9733 20.8067 20.3067 20.8067H9.69333C8.02667 20.8067 6.66667 19.4467 6.66667 17.78V12.2267C6.66667 10.56 8.02667 9.2 9.69333 9.2H20.3067C21.9733 9.2 23.3333 10.56 23.3333 12.2267V17.78Z" fill="white"/>
</svg>
