<svg width="224" height="224" viewBox="0 0 224 224" fill="none" xmlns="http://www.w3.org/2000/svg">
<path d="M193.3 113.173H181.876C181.876 75.8895 151.553 45.5735 114.29 45.5735L114.283 34.163C157.862 34.1424 193.3 69.5946 193.3 113.173ZM114.283 53.8708L114.277 65.2813C140.698 65.2813 162.161 86.7652 162.147 113.166L173.572 113.159C173.572 80.4702 146.993 53.8708 114.283 53.8708ZM112 0C50.2365 0 0 50.2364 0 112.007C0 173.764 50.2365 224 112 224C115.82 224 118.905 220.914 118.905 217.102C118.905 213.268 115.82 210.176 112 210.176C57.8549 210.176 13.8174 166.125 13.8174 112.007C13.8174 57.8617 57.8549 13.8174 112 13.8174C166.145 13.8174 210.176 57.8686 210.176 112.007C210.176 134.629 198.134 157.045 180.902 166.55C174.641 169.992 167.853 171.699 160.611 171.768C164.959 169.183 168.723 165.686 171.521 161.283C172.07 160.454 172.797 159.72 173.153 158.822C175.402 153.411 175.601 147.274 176.959 141.555C178.625 134.259 145.018 120.002 142.097 129.116C141.041 132.49 139.422 143.16 137.303 145.971C135.418 148.481 130.768 147.288 127.861 144.819C120.201 138.291 111.65 128.697 104.148 121.113L104.162 121.106C103.97 120.908 103.737 120.688 103.531 120.476C103.319 120.277 103.106 120.05 102.894 119.845V119.858C95.3094 112.343 85.7092 103.812 79.1879 96.1391C76.7193 93.2316 75.5261 88.5824 78.0359 86.6966C80.8474 84.564 91.5173 82.9731 94.8911 81.9034C103.984 78.9959 89.7481 45.3678 82.4383 47.041C76.733 48.3781 70.5957 48.5976 65.1853 50.833C64.2664 51.2239 63.5533 51.9302 62.7236 52.4788C43.53 64.6436 41.0546 94.1848 59.7886 116.197C66.9271 124.617 74.3741 132.764 82.0405 140.718L81.9994 140.746C82.212 140.958 82.4314 141.157 82.6508 141.363C82.8566 141.575 83.0554 141.788 83.2543 142.014L83.2954 141.973C91.2499 149.64 100.679 160.934 115.998 171.151C148.248 192.69 172.996 186.676 187.574 178.68C212.74 164.822 224 135.219 224 112.034C224 50.2364 173.757 0 112 0Z" fill="#0D2040" fill-opacity="0.05"/>
</svg>
